<svg xmlns="http://www.w3.org/2000/svg" width="1600" height="900" viewBox="0 0 1600 900">
  <defs>
    <linearGradient id="g" x1="0" y1="0" x2="0" y2="1">
      <stop offset="0" stop-color="#0b0f14"/>
      <stop offset="0.55" stop-color="#121826"/>
      <stop offset="1" stop-color="#07090d"/>
    </linearGradient>
    <radialGradient id="glow" cx="0.72" cy="0.28" r="0.65">
      <stop offset="0" stop-color="#c9a86a" stop-opacity="0.28"/>
      <stop offset="0.45" stop-color="#c9a86a" stop-opacity="0.06"/>
      <stop offset="1" stop-color="#c9a86a" stop-opacity="0"/>
    </radialGradient>
    <filter id="n" x="-20%" y="-20%" width="140%" height="140%">
      <feTurbulence type="fractalNoise" baseFrequency="0.9" numOctaves="2" stitchTiles="stitch"/>
      <feColorMatrix type="matrix" values="0 0 0 0 0.78  0 0 0 0 0.66  0 0 0 0 0.42  0 0 0 0.14 0"/>
    </filter>
  </defs>
  <rect width="1600" height="900" fill="url(#g)"/>
  <rect width="1600" height="900" fill="url(#glow)"/>
  <rect width="1600" height="900" filter="url(#n)" opacity="0.15"/>
  <g opacity="0.30">
    <path d="M0 650 C260 580, 470 610, 760 540 C1040 472, 1260 505, 1600 430 L1600 900 L0 900 Z" fill="#0a0d12"/>
    <path d="M0 720 C320 640, 560 690, 860 610 C1140 540, 1300 560, 1600 490 L1600 900 L0 900 Z" fill="#06080b"/>
  </g>
  <g opacity="0.55">
    <rect x="120" y="190" width="1360" height="520" rx="40" fill="none" stroke="#c9a86a" stroke-opacity="0.22"/>
    <rect x="160" y="230" width="1280" height="440" rx="36" fill="none" stroke="#f5f0e8" stroke-opacity="0.08"/>
  </g>
</svg>
